<?xml version="1.0" encoding="utf-8"?>
<!-- Generator: Adobe Illustrator 26.5.0, SVG Export Plug-In . SVG Version: 6.00 Build 0)  -->
<svg version="1.1" id="Capa_1" xmlns="http://www.w3.org/2000/svg" xmlns:xlink="http://www.w3.org/1999/xlink" x="0px" y="0px"
	 viewBox="0 0 1008 370.88" style="enable-background:new 0 0 1008 370.88;" xml:space="preserve">
<style type="text/css">
	.st0{fill:#636569;}
	.st1{fill:#BFB9B2;}
</style>
<g>
	<g>
		<path class="st0" d="M985.01,211.16c0-2.32-1.67-3.7-4.27-3.7h-5.63v12.38h2.33v-4.79h3.22c1.11,0,1.61,0.49,1.61,1.53v1.89
			c0,0.56,0.1,1.03,0.23,1.37h2.39c-0.13-0.37-0.28-1.06-0.28-1.51v-1.72c0-1.32-0.47-2.16-1.34-2.65
			C984.32,213.48,985.01,212.56,985.01,211.16z M980.81,212.94h-3.37v-3.27h3.3c1.91,0,1.91,1.21,1.91,1.61
			C982.65,212.83,981.13,212.94,980.81,212.94z"/>
		<path class="st0" d="M979.91,199.97c-8.03,0-14.54,6.51-14.54,14.55c0,8.02,6.52,14.53,14.54,14.53c8.02,0,14.54-6.51,14.54-14.53
			C994.46,206.48,987.93,199.97,979.91,199.97z M979.91,226.85c-6.79,0-12.33-5.53-12.33-12.32c0-6.81,5.54-12.33,12.33-12.33
			c6.77,0,12.34,5.53,12.34,12.33C992.25,221.32,986.69,226.85,979.91,226.85z"/>
	</g>
	<path class="st0" d="M302.35,164.13c0-18.05,0-36.11,0-54.14c0-3.8,0.07-3.87,3.76-3.87c16.42-0.01,32.83-0.03,49.25,0
		c10.23,0.02,20.1,1.69,29.18,6.62c17.83,9.7,28.53,24.54,31.16,44.77c3.15,24.18-9.45,47.34-31.06,58.66
		c-8.28,4.35-17.15,6.53-26.51,6.57c-17.22,0.05-34.44,0.02-51.67,0.02c-4.09,0-4.11,0-4.11-4.02
		C302.35,200.55,302.35,182.33,302.35,164.13z M330.73,164.37c0,9.1-0.02,18.19,0,27.29c0,3.01,0.04,3.02,2.95,3.04
		c7.72,0,15.44-0.02,23.15,0c2.12,0,4.22-0.24,6.3-0.59c16.32-2.8,27.44-18.81,24.38-35.11c-3-15.89-16.97-24.76-29.26-24.59
		c-5.44,0.07-10.88,0-16.34,0c-2.99,0-6.01-0.01-9.01,0.03c-1.84,0.03-2.06,0.27-2.16,2.12c-0.02,0.56,0,1.13,0,1.71
		C330.73,146.97,330.73,155.67,330.73,164.37z"/>
	<path class="st0" d="M925.31,162.37c0-1.43,0-2.34,0-3.22c0-16.51,0-33.02,0-49.51c0-3.55,0.01-3.57,3.47-3.58
		c7.08,0,14.15,0,21.22,0c0.57,0,1.15,0.02,1.7,0.05c1.06,0.05,1.68,0.56,1.68,1.66c-0.03,0.65,0.01,1.32,0.01,1.95
		c0,36.68,0,73.36-0.01,110.02c0,0.95,0.22,1.94-0.32,2.84c-1.69-0.67-18.52-15.24-32.69-27.99c-10.69-9.6-21.57-18.99-32.48-28.57
		c-0.8,1.08-0.54,2.06-0.54,2.98c-0.02,16.67,0,33.34-0.02,50c0,0.9-0.02,1.81-0.08,2.69c-0.1,0.94-0.63,1.47-1.6,1.52
		c-0.55,0.02-1.13,0.03-1.7,0.03c-7.21,0.03-14.47,0.03-21.69,0c-0.48,0-0.97-0.01-1.48-0.01c-1.21-0.02-1.75-0.7-1.77-1.85
		c0-0.57-0.01-1.14-0.01-1.7c0-36.76,0-73.51,0.01-110.27c0-0.99-0.53-2.4,0.65-2.85c0.95-0.36,1.6,0.9,2.31,1.53
		c16.84,14.45,33.66,28.91,50.51,43.39c3.76,3.24,7.5,6.47,11.27,9.71C924.1,161.48,924.49,161.76,925.31,162.37z"/>
	<path class="st0" d="M555.74,139.23c0,8.86-0.02,17.72,0.02,26.59c0.07,21.9-13.75,43.52-35.26,52.63
		c-8.14,3.47-16.61,5.17-25.43,4.73c-13.96-0.68-26.3-5.62-36.73-14.99c-9.49-8.51-15.55-19.06-18.17-31.57
		c-0.77-3.65-1.21-7.36-1.23-11.1c-0.02-18.62-0.02-37.23,0-55.85c0-3.47,0.12-3.61,3.52-3.62c7.16,0,14.3,0,21.44,0
		c0.41,0,0.81,0,1.22,0.03c1.67,0.14,1.98,0.42,2.11,2.04c0.08,0.8,0.04,1.61,0.04,2.43c0,18.05,0.05,36.11-0.02,54.14
		c-0.02,7.03,1.98,13.31,6.32,18.77c5.23,6.55,12,10.27,20.32,11.37c13.87,1.83,27.48-6.78,32.01-19.82
		c1.15-3.33,1.75-6.75,1.75-10.27c0-18.29,0-36.59,0-54.88c0-3.8,0-3.81,3.74-3.81c6.91,0,13.81,0,20.71,0
		c0.67,0,1.31,0.02,1.94,0.05c1.06,0.05,1.68,0.56,1.68,1.66c-0.02,0.74,0.02,1.47,0.02,2.2c0,9.75,0,19.51,0,29.26H555.74z"/>
	<path class="st0" d="M637.48,142.71c0.69-0.81,1.33-1.53,1.92-2.27c8.42-10.55,16.86-21.09,25.19-31.7
		c1.28-1.61,2.6-2.38,4.69-2.35c8.95,0.12,17.9,0.05,26.84,0.05c0.16,0,0.32-0.02,0.49,0c0.7,0.08,1.63-0.28,2.02,0.47
		c0.44,0.88-0.47,1.45-0.97,2.07c-2.72,3.51-5.51,7.01-8.3,10.52c-11.62,14.55-23.21,29.09-34.83,43.67
		c-1.37,1.72-1.37,1.75-0.07,3.55c12.51,17.34,25.02,34.68,37.53,52.03c0.71,0.99,1.46,1.95,2.08,2.99c0.54,0.9,0.29,1.32-0.76,1.47
		c-0.55,0.07-1.12,0.03-1.71,0.03c-8.45,0.03-16.89-0.03-25.36,0.06c-2,0.02-3.29-0.66-4.44-2.29
		c-7.8-10.92-15.67-21.78-23.54-32.64c-0.14-0.2-0.3-0.4-0.43-0.6c-1.29-1.74-1.47-1.75-2.82-0.07
		c-4.02,5.01-8.04,10.03-12.03,15.06c-4.96,6.24-9.96,12.44-14.87,18.71c-1.01,1.28-2.1,1.82-3.71,1.82
		c-9.2-0.05-18.38-0.04-27.57-0.04c-0.17,0-0.32,0.03-0.5,0c-0.62-0.05-1.4,0.18-1.79-0.46c-0.44-0.8,0.3-1.36,0.73-1.89
		c5.31-6.69,10.66-13.36,15.97-20.03c9.18-11.5,18.36-23,27.52-34.5c0.24-0.32,0.47-0.66,0.75-0.95c0.98-1.01,0.83-1.91,0.04-3
		c-2.49-3.32-4.85-6.72-7.3-10.08c-10.25-14.26-20.54-28.49-30.79-42.74c-0.51-0.71-1.53-1.41-1.09-2.29c0.46-1,1.74-0.68,2.68-0.68
		c8.37-0.01,16.74,0.03,25.12-0.04c2.05-0.01,3.48,0.63,4.69,2.35c7.46,10.46,14.99,20.87,22.51,31.29
		C635.97,141.05,636.49,141.97,637.48,142.71z"/>
	<g>
		<g>
			<g>
				<g>
					<path class="st1" d="M467.71,289.88c-6.95,0-11.52-4.04-11.52-10.08h3.83c0,4.04,3.13,6.56,7.69,6.56c5.17,0,7.7-2.17,7.7-5.56
						c0-2.52-1.13-4.26-7.78-5.39c-6.7-1.17-10.52-3.26-10.52-8.43c0-5.18,4.13-8.52,10.52-8.52c6.61,0,10.69,3.56,10.69,9.39h-3.74
						c0-3.52-2.39-5.87-6.91-5.87c-4.65,0-6.82,2.04-6.82,4.87c0,2.61,1.39,3.91,7.56,5.04c6.61,1.26,10.69,3.13,10.69,8.91
						C479.1,286.7,474.45,289.88,467.71,289.88z"/>
					<path class="st1" d="M510.58,259.19v3.52h-17.87v9.13h16.12v3.52h-16.12v10.43h17.87v3.57h-21.56v-30.17H510.58z"/>
					<path class="st1" d="M524.4,289.36h-3.7v-30.17h12.69c6.22,0,9.69,3.78,9.69,9.13c0,5.3-3.48,9.13-9.69,9.13h-9V289.36z
						 M524.4,262.71v11.22h9c3.52,0,6.04-1.65,6.04-5.61c0-3.95-2.52-5.61-6.04-5.61H524.4z"/>
					<path class="st1" d="M556.35,289.36h-3.7v-30.17h3.7V289.36z"/>
					<path class="st1" d="M580.04,289.36h-3.95l-11.13-30.17h4l9.09,25.61l9.13-25.61h3.96L580.04,289.36z"/>
					<path class="st1" d="M621.11,259.19v3.52h-17.87v9.13h16.13v3.52h-16.13v10.43h17.87v3.57h-21.56v-30.17H621.11z"/>
					<path class="st1" d="M654.07,289.36h-3.74c-0.35-0.83-0.56-1.87-0.56-3.26v-4.13c0-2.91-1.52-4.52-4.95-4.52h-9.87v11.91h-3.69
						v-30.17h13.35c6.17,0,9.78,3.74,9.78,9.13c0,3.22-1.57,5.82-4.13,7.3c2.05,1.22,3.17,3.3,3.17,6.35v3.74
						C653.41,286.83,653.72,288.49,654.07,289.36z M644.72,273.88c3.56,0,5.91-2.13,5.91-5.56c0-3.91-2.35-5.61-6.05-5.61h-9.65
						v11.17H644.72z"/>
					<path class="st1" d="M691.88,289.88c-6.96,0-11.52-4.04-11.52-10.08h3.83c0,4.04,3.13,6.56,7.7,6.56c5.17,0,7.7-2.17,7.7-5.56
						c0-2.52-1.13-4.26-7.78-5.39c-6.7-1.17-10.52-3.26-10.52-8.43c0-5.18,4.13-8.52,10.52-8.52c6.61,0,10.7,3.56,10.7,9.39h-3.74
						c0-3.52-2.39-5.87-6.91-5.87c-4.65,0-6.82,2.04-6.82,4.87c0,2.61,1.39,3.91,7.56,5.04c6.61,1.26,10.69,3.13,10.69,8.91
						C703.27,286.7,698.62,289.88,691.88,289.88z"/>
					<path class="st1" d="M716.18,289.36h-4.35v-4.48h4.35V289.36z"/>
					<path class="st1" d="M731.43,280.58l-3.21,8.78h-4l11.39-30.17h4.17l11.17,30.17h-4.12l-3.18-8.78H731.43z M737.61,263.71
						l-4.91,13.43h9.73L737.61,263.71z"/>
					<path class="st1" d="M763.34,289.36H759v-4.48h4.35V289.36z"/>
					<path class="st1" d="M791.34,259.19h11.17c8.35,0,13.7,5.69,13.7,15.04c0,9.35-5.35,15.13-13.7,15.13h-11.17V259.19z
						 M795.03,262.71v23.08h7.47c5.56,0,9.91-3.43,9.91-11.56c0-8.26-4.39-11.52-9.91-11.52H795.03z"/>
					<path class="st1" d="M847.71,259.19v3.52h-17.87v9.13h16.13v3.52h-16.13v10.43h17.87v3.57h-21.56v-30.17H847.71z"/>
					<path class="st1" d="M888.58,289.88c-8.26,0-14.95-7.04-14.95-15.74c0-8.65,6.69-15.69,14.95-15.69
						c6.87,0,11.91,4.09,13.82,10.04h-3.87c-1.65-3.78-5.04-6.52-9.95-6.52c-6.22,0-11.3,5.52-11.3,12.17
						c0,6.65,5.09,12.17,11.3,12.17c4.43,0,8.13-2.52,9.95-6.52h3.87C900.36,285.92,895.05,289.88,888.58,289.88z"/>
					<path class="st1" d="M914.31,289.36h-4.35v-4.48h4.35V289.36z"/>
					<path class="st1" d="M932.13,289.36h-3.96l-11.13-30.17h4l9.09,25.61l9.13-25.61h3.96L932.13,289.36z"/>
					<path class="st1" d="M950.3,289.36h-4.35v-4.48h4.35V289.36z"/>
					<path class="st1" d="M467.76,342.04c-6.95,0-11.52-4.04-11.52-10.08h3.83c0,4.04,3.13,6.56,7.69,6.56c5.17,0,7.7-2.17,7.7-5.56
						c0-2.52-1.13-4.26-7.78-5.39c-6.69-1.17-10.52-3.26-10.52-8.43c0-5.17,4.13-8.52,10.52-8.52c6.61,0,10.7,3.56,10.7,9.39h-3.74
						c0-3.52-2.39-5.87-6.91-5.87c-4.65,0-6.83,2.04-6.83,4.87c0,2.61,1.39,3.91,7.56,5.04c6.61,1.26,10.7,3.13,10.7,8.91
						C479.15,338.86,474.49,342.04,467.76,342.04z"/>
					<path class="st1" d="M510.23,311.35v3.52h-17.87V324h16.13v3.52h-16.13v10.43h17.87v3.56h-21.56v-30.17H510.23z"/>
					<path class="st1" d="M547.39,325.09v16.43h-3.57v-5.13c-2.17,3.26-5.95,5.65-11.08,5.65c-8.3,0-15-7.04-15-15.74
						c0-8.65,6.7-15.69,15-15.69c6.43,0,11.65,3.87,13.87,10.04h-3.91c-1.92-4.04-5.52-6.48-9.96-6.48
						c-6.26,0-11.35,5.52-11.35,12.13c0,6.65,5.08,12.17,11.35,12.17c6.43,0,10.39-4.78,11.04-9.82h-10.82v-3.57H547.39z"/>
					<path class="st1" d="M568.69,338.47c5.09,0,7.87-3.3,7.87-7.78v-19.34h3.7v19.34c0,6.7-4.7,11.35-11.56,11.35
						c-6.91,0-11.56-4.65-11.56-11.35v-19.34h3.65v19.34C560.78,335.17,563.65,338.47,568.69,338.47z"/>
					<path class="st1" d="M613.94,341.52h-3.74c-0.35-0.82-0.57-1.87-0.57-3.26v-4.13c0-2.91-1.52-4.52-4.95-4.52h-9.87v11.91h-3.7
						v-30.17h13.35c6.17,0,9.78,3.74,9.78,9.13c0,3.22-1.57,5.82-4.13,7.3c2.04,1.22,3.17,3.3,3.17,6.35v3.74
						C613.29,339,613.59,340.65,613.94,341.52z M604.59,326.04c3.57,0,5.91-2.13,5.91-5.56c0-3.91-2.35-5.61-6.04-5.61h-9.65v11.17
						H604.59z"/>
					<path class="st1" d="M628.24,341.52h-3.7v-30.17h3.7V341.52z"/>
					<path class="st1" d="M639.8,311.35h11.17c8.35,0,13.7,5.69,13.7,15.04c0,9.35-5.35,15.12-13.7,15.12H639.8V311.35z
						 M643.5,314.87v23.08h7.47c5.56,0,9.91-3.43,9.91-11.56c0-8.26-4.39-11.52-9.91-11.52H643.5z"/>
					<path class="st1" d="M677.32,332.74l-3.22,8.78h-4l11.39-30.17h4.17l11.17,30.17h-4.13l-3.17-8.78H677.32z M683.49,315.87
						l-4.91,13.43h9.74L683.49,315.87z"/>
					<path class="st1" d="M704.1,311.35h11.17c8.34,0,13.69,5.69,13.69,15.04c0,9.35-5.35,15.12-13.69,15.12H704.1V311.35z
						 M707.79,314.87v23.08h7.48c5.56,0,9.91-3.43,9.91-11.56c0-8.26-4.39-11.52-9.91-11.52H707.79z"/>
					<path class="st1" d="M759.38,341.52h-3.69v-30.17h12.69c6.22,0,9.7,3.78,9.7,9.13c0,5.3-3.48,9.13-9.7,9.13h-9V341.52z
						 M759.38,314.87v11.22h9c3.52,0,6.05-1.65,6.05-5.61c0-3.95-2.53-5.61-6.05-5.61H759.38z"/>
					<path class="st1" d="M809.9,341.52h-3.74c-0.35-0.82-0.57-1.87-0.57-3.26v-4.13c0-2.91-1.52-4.52-4.95-4.52h-9.87v11.91h-3.7
						v-30.17h13.34c6.17,0,9.78,3.74,9.78,9.13c0,3.22-1.56,5.82-4.13,7.3c2.05,1.22,3.17,3.3,3.17,6.35v3.74
						C809.24,339,809.55,340.65,809.9,341.52z M800.55,326.04c3.56,0,5.91-2.13,5.91-5.56c0-3.91-2.35-5.61-6.04-5.61h-9.65v11.17
						H800.55z"/>
					<path class="st1" d="M824.19,341.52h-3.69v-30.17h3.69V341.52z"/>
					<path class="st1" d="M847.5,341.52h-3.95l-11.13-30.17h4l9.08,25.61l9.13-25.61h3.96L847.5,341.52z"/>
					<path class="st1" d="M868.4,332.74l-3.22,8.78h-4l11.39-30.17h4.17l11.18,30.17h-4.13l-3.17-8.78H868.4z M874.58,315.87
						l-4.91,13.43h9.74L874.58,315.87z"/>
					<path class="st1" d="M895.18,311.35h11.17c8.35,0,13.69,5.69,13.69,15.04c0,9.35-5.35,15.12-13.69,15.12h-11.17V311.35z
						 M898.88,314.87v23.08h7.47c5.57,0,9.91-3.43,9.91-11.56c0-8.26-4.39-11.52-9.91-11.52H898.88z"/>
					<path class="st1" d="M932.69,332.74l-3.22,8.78h-4l11.39-30.17h4.17l11.17,30.17h-4.13l-3.17-8.78H932.69z M938.87,315.87
						l-4.91,13.43h9.74L938.87,315.87z"/>
				</g>
			</g>
			<g>
				<g>
					<path class="st1" d="M775.69,107.03c31.91,0.29,57.84,25.27,57.88,57.65c0.05,32.64-25.91,57.83-57.88,57.89
						c-32.42,0.06-58.03-25.79-57.99-57.77C717.75,132.34,743.64,107.28,775.69,107.03z"/>
				</g>
			</g>
			<g>
				<g>
					<path class="st1" d="M117.52,165.42c-0.41-12,9.53-22.28,21.87-22.46c12.3-0.17,22.53,9.82,22.62,22.07
						c0.09,12.13-9.95,22.37-22.08,22.34C126.66,187.36,117.36,176.72,117.52,165.42z"/>
				</g>
			</g>
		</g>
	</g>
	<path class="st0" d="M89.56,288.6c-7.82,0.93-14.99-4.66-15.95-12.43c-0.94-7.73,4.82-14.97,12.56-15.84
		c7.65-0.87,15.05,4.72,15.84,12.34C102.97,281.81,96.28,287.86,89.56,288.6z"/>
	<path class="st0" d="M191.1,41.07c7.86-0.95,15.02,4.6,15.98,12.39c0.93,7.59-4.72,14.87-12.33,15.86
		c-7.79,1.04-15-4.53-15.98-12.31C177.79,49.06,183.22,42.06,191.1,41.07z"/>
	<path class="st0" d="M154.68,285.8c0.3,7.11-5.36,14.4-14.04,14.49c-8.19,0.08-14.32-6.25-14.46-14.1
		c-0.15-7.75,6.17-14.17,13.95-14.3C148.21,271.77,154.58,277.87,154.68,285.8z"/>
	<path class="st0" d="M23.98,205.91c-7.85,0.9-14.89-4.68-15.79-12.55c-0.9-7.82,4.8-14.9,12.61-15.76
		c7.65-0.83,14.82,4.87,15.72,12.5C37.44,197.87,31.82,205,23.98,205.91z"/>
	<path class="st0" d="M233.79,226.74c7.97-0.94,14.82,4.55,15.79,12.47c0.89,7.02-3.99,14.84-12.62,15.72
		c-8.23,0.87-14.72-4.85-15.7-12.42C220.26,234.72,225.91,227.64,233.79,226.74z"/>
	<path class="st0" d="M101.53,53.91c0.89,7.76-4.68,14.77-12.4,15.67c-7.76,0.89-15.05-4.82-15.93-12.5
		c-0.86-7.72,4.91-14.94,12.66-15.8C93.79,40.41,100.65,45.95,101.53,53.91z"/>
	<path class="st0" d="M59.8,239.12c1.1,6.62-3.53,14.67-12.5,15.79c-7.72,0.96-14.99-4.96-15.84-12.63
		c-0.85-7.65,4.82-14.62,12.55-15.62C52.29,225.58,59.45,232.14,59.8,239.12z"/>
	<path class="st0" d="M206.93,272.68c0.78,7.9-4.91,14.87-12.8,15.56c-7.78,0.68-14.54-4.6-15.58-12.65
		c-0.97-7.69,5.04-14.86,12.79-15.68C199.17,259.07,206.15,264.78,206.93,272.68z"/>
	<path class="st0" d="M141.97,57.15c-6.91,1.01-14.77-3.73-15.81-12.23c-1.04-8.53,4.67-15.01,12.33-15.95
		c8.53-1.05,15.02,4.73,15.97,12.59C155.39,49.27,149.75,56.21,141.97,57.15z"/>
	<path class="st0" d="M43.94,75.38c6.52-1.21,14.67,3.86,15.65,12.32c0.91,7.82-4.68,14.94-12.5,15.86
		c-7.78,0.92-14.96-4.77-15.83-12.56C30.42,83.29,35.99,75.99,43.94,75.38z"/>
	<path class="st0" d="M249.42,87.61c1.24,6.83-4.25,14.89-12.54,15.71c-7.75,0.76-14.98-4.7-15.73-12.36
		c-0.74-7.41,3.71-14.74,12.52-15.84C242.56,73.97,248.9,80.71,249.42,87.61z"/>
	<path class="st0" d="M20.35,124.09c7.87-0.9,14.81,4.68,15.7,12.57c0.79,6.96-3.93,14.67-12.51,15.61
		c-9.37,1.04-15.14-6.03-15.85-12.5C6.86,131.94,12.42,124.99,20.35,124.09z"/>
	<path class="st0" d="M150.27,247.82c0.74,5.69-3.31,10.96-8.97,11.68c-5.59,0.69-10.92-3.51-11.59-9.13
		c-0.69-5.51,3.44-10.67,9.05-11.37C144.4,238.29,149.55,242.22,150.27,247.82z"/>
	<path class="st0" d="M205.75,102.29c5.48-0.51,10.61,3.62,11.17,9.01c0.62,5.65-3.6,10.96-9.18,11.56
		c-5.67,0.6-10.84-3.62-11.41-9.33C195.73,107.86,199.96,102.84,205.75,102.29z"/>
	<path class="st0" d="M47.63,147.26c-0.63-5.8,3.4-10.75,9.19-11.4c4.78-0.52,10.47,2.45,11.32,9.06
		c0.75,5.65-3.65,10.95-9.22,11.49C53.38,156.96,48.25,152.8,47.63,147.26z"/>
	<path class="st0" d="M113.68,239.82c0.67,5.68-3.26,10.68-8.95,11.37c-5.71,0.68-11.09-3.42-11.59-9.01
		c-0.49-5.76,3.03-10.59,9.25-11.48C107.89,229.94,113.03,234.24,113.68,239.82z"/>
	<path class="st0" d="M75.2,227.78c-5.78,0.66-10.78-3.35-11.38-9.19c-0.59-5.5,3.63-10.75,9.1-11.32
		c5.6-0.58,10.93,3.73,11.47,9.28C84.94,222.13,80.83,227.13,75.2,227.78z"/>
	<path class="st0" d="M166.99,89.6c-0.69-5.76,3.33-10.71,9.19-11.36c5.56-0.61,10.7,3.47,11.35,9.04
		c0.65,5.46-3.54,10.76-8.99,11.46C172.9,99.45,167.65,95.29,166.99,89.6z"/>
	<path class="st0" d="M175.34,230.78c5.65-0.65,10.88,3.53,11.47,9.19c0.59,5.53-3.53,10.69-9.09,11.32
		c-5.66,0.65-10.88-3.52-11.47-9.19C165.65,236.56,169.8,231.42,175.34,230.78z"/>
	<path class="st0" d="M48.21,184.32c-0.68-5.8,3.32-10.87,9.09-11.5c5.39-0.59,10.82,3.72,11.4,9.1c0.62,5.67-3.54,10.81-9.25,11.46
		C53.77,193.98,48.87,190.05,48.21,184.32z"/>
	<path class="st0" d="M114.32,87.54c0.59,5.57-3.5,10.69-9.06,11.35c-5.66,0.67-10.94-3.52-11.52-9.17
		c-0.58-5.67,3.63-10.8,9.34-11.37C108.6,77.78,113.71,81.98,114.32,87.54z"/>
	<path class="st0" d="M130.46,81.3c-0.9-5.14,3.06-10.6,8.91-11.4c5.5-0.78,11.06,3.62,11.62,9.09c0.58,5.68-3.57,10.74-9.3,11.39
		C135.97,91.04,130.72,86.52,130.46,81.3z"/>
	<path class="st0" d="M75.7,122.12c-5.68,0.67-10.87-3.47-11.47-9.13c-0.61-5.52,3.55-10.73,9.08-11.38
		c5.51-0.63,10.76,3.46,11.47,8.96C85.49,116.22,81.39,121.45,75.7,122.12z"/>
	<path class="st0" d="M207.69,228.65c-5.69,0.7-10.73-3.15-11.51-8.77c-0.76-5.59,3.37-10.99,8.95-11.7
		c5.4-0.69,10.82,3.46,11.57,8.9C217.48,222.72,213.42,227.95,207.69,228.65z"/>
	<path class="st0" d="M98.35,124.19c3.82-0.47,7.36,2.27,7.81,6.01c0.44,3.75-2.29,7.29-6.07,7.83c-3.77,0.53-7.55-2.39-7.97-6.19
		C91.68,128.16,94.54,124.64,98.35,124.19z"/>
	<path class="st0" d="M89.07,183.07c-3.81,0.44-7.32-2.28-7.82-6.02c-0.48-3.68,2.35-7.27,6.13-7.77c3.85-0.52,7.57,2.38,7.96,6.17
		C95.66,179.22,92.88,182.62,89.07,183.07z"/>
	<path class="st0" d="M162.14,206.42c3.93-0.41,7.17,2.19,7.63,6.13c0.45,3.85-2.22,7.23-6.09,7.69c-3.94,0.49-7.38-2.29-7.77-6.27
		C155.51,210.06,158.17,206.85,162.14,206.42z"/>
	<path class="st0" d="M117.47,219.54c-3.79,0.47-7.36-2.23-7.89-5.97c-0.52-3.78,2.4-7.44,6.28-7.86c3.8-0.4,7.36,2.39,7.77,6.1
		C124.05,215.56,121.25,219.07,117.47,219.54z"/>
	<path class="st0" d="M138.71,211.21c3.97-0.52,7.5,2.15,7.97,6.06c0.46,3.74-2.36,7.27-6.14,7.73c-3.75,0.45-7.28-2.25-7.86-6.02
		C132.13,215.35,134.96,211.69,138.71,211.21z"/>
	<path class="st0" d="M87.49,145.61c3.79-0.46,7.35,2.29,7.85,6.02c0.49,3.8-2.43,7.41-6.32,7.82c-3.78,0.39-7.35-2.43-7.74-6.13
		C80.87,149.55,83.73,146.06,87.49,145.61z"/>
	<path class="st0" d="M157.11,117.75c-0.42-3.93,2.18-7.17,6.12-7.62c3.92-0.46,7.28,2.14,7.72,6.02c0.46,3.97-2.3,7.42-6.25,7.8
		C160.84,124.34,157.52,121.62,157.11,117.75z"/>
	<path class="st0" d="M118.51,123.41c-3.81,0.44-7.4-2.35-7.79-6.04c-0.4-3.81,2.31-7.28,6.08-7.77c3.89-0.5,7.58,2.37,7.95,6.18
		C125.14,119.53,122.33,122.96,118.51,123.41z"/>
	<path class="st0" d="M189.52,131.22c0.45,3.75-2.33,7.35-6.06,7.82c-3.87,0.49-7.55-2.36-7.93-6.15c-0.39-3.82,2.32-7.17,6.19-7.65
		C185.5,124.78,189.1,127.53,189.52,131.22z"/>
	<path class="st0" d="M180.96,192.17c3.88-0.42,7.21,2.24,7.65,6.12c0.46,3.85-2.23,7.26-6.04,7.71c-3.89,0.46-7.49-2.41-7.89-6.23
		C174.33,195.98,177.13,192.57,180.96,192.17z"/>
	<path class="st0" d="M99.21,204.73c-3.97,0.5-7.25-1.97-7.8-5.85c-0.56-4,2.1-7.47,6.03-7.96c3.73-0.45,7.28,2.33,7.77,6.09
		C105.72,200.88,103.13,204.21,99.21,204.73z"/>
	<path class="st0" d="M147.94,110.61c0.44,3.96-2.15,7.2-6.12,7.64c-3.87,0.46-7.27-2.2-7.72-6.08c-0.43-3.73,2.45-7.31,6.19-7.72
		C144.2,104.02,147.5,106.68,147.94,110.61z"/>
</g>
</svg>
